<?xml version="1.0" encoding="UTF-8" standalone="no"?>
<svg width="19px" height="54px" viewBox="0 0 19 54" version="1.1" xmlns="http://www.w3.org/2000/svg" xmlns:xlink="http://www.w3.org/1999/xlink">
    <defs></defs>
    <g id="Page-2" stroke="none" stroke-width="1" fill="none" fill-rule="evenodd">
        <g id="new-start-home" transform="translate(-270.000000, -434.000000)">
            <g id="arrow_icon" transform="translate(272.000000, 433.000000)">
                <rect id="Rectangle-202" stroke="#CD8989" stroke-width="2" x="7" y="8" width="2" height="46"></rect>
                <path d="M8.01490543,46.4291993 C8.01490543,46.4291993 9.84126504,45.9607573 12.0604315,47.0803223 C14.9330273,48.529541 16.105957,54.7548828 16.105957,54.7548828" id="Path-327" stroke="#CD8989" stroke-width="2" transform="translate(12.060431, 50.543427) scale(-1, 1) translate(-12.060431, -50.543427) "></path>
                <path d="M-0.985094572,46.4291993 C-0.985094572,46.4291993 0.841265039,45.9607573 3.06043146,47.0803223 C5.93302732,48.529541 7.10595703,54.7548828 7.10595703,54.7548828" id="Path-328" stroke="#CD8989" stroke-width="2"></path>
                <path d="M10.4194336,16.9067383 L14.9592718,12.3669001 L14.9592718,0.990729191 L10.3149414,8.04589844 L10.4194336,16.9067383 Z" id="Path-329" fill="#CD8989"></path>
                <path d="M1.41943359,16.9067383 L5.95927178,12.3669001 L5.95927178,0.990729191 L1.31494141,8.04589844 L1.41943359,16.9067383 Z" id="Path-329" fill="#CD8989" transform="translate(3.637107, 8.948734) scale(-1, 1) translate(-3.637107, -8.948734) "></path>
            </g>
        </g>
    </g>
</svg>