<?xml version="1.0" encoding="UTF-8" standalone="no"?>
<svg width="29px" height="33px" viewBox="0 0 29 33" version="1.1" xmlns="http://www.w3.org/2000/svg" xmlns:xlink="http://www.w3.org/1999/xlink">
    <defs></defs>
    <g id="Page-2" stroke="none" stroke-width="1" fill="none" fill-rule="evenodd">
        <g id="new-scrolled-1" transform="translate(-146.000000, -172.000000)" fill="#D1B0B0">
            <path d="M159.828241,182.130883 C162.972781,182.130883 164.002166,179.913436 162.790745,177.565928 C161.387624,174.847508 165.843462,172.5 163.630041,172.5 C161.534218,172.5 157.611599,174.776858 156.880236,177.610887 C156.33413,179.73681 157.357071,182.130883 159.828241,182.130883 L159.828241,182.130883 Z M168.22442,196.503346 L167.509166,195.888369 C166.724642,195.213983 165.4955,195.217194 164.714198,195.888369 L164.002166,196.50174 C163.003389,197.359175 161.751694,197.787892 160.5,197.787892 C159.248306,197.787892 157.996611,197.359175 156.999445,196.503346 L156.284191,195.886764 C155.499667,195.215589 154.272136,195.213983 153.490834,195.888369 L152.77558,196.503346 C150.853738,198.153987 147.995945,198.198946 146.003222,196.663914 L146.003222,202.946949 C146.003222,203.833286 146.724919,204.552632 147.614154,204.552632 L173.389068,204.552632 C174.278302,204.552632 175,203.833286 175,202.946949 L175,196.66552 C173.007277,198.197341 170.149483,198.157199 168.22442,196.503346 L168.22442,196.503346 Z M160.498389,183.678761 C148.297189,183.678761 146,189.075459 146,191.707173 L146,192.460238 L147.875125,194.070737 C148.658038,194.746729 149.887179,194.740307 150.670092,194.070737 L151.385346,193.455761 C153.378069,191.745709 156.38729,191.744103 158.384846,193.455761 L159.1001,194.072343 C159.879791,194.741912 161.10571,194.746729 161.895067,194.070737 L162.607099,193.457366 C164.604655,191.744103 167.612265,191.744103 169.60821,193.455761 L170.323464,194.070737 C171.107988,194.746729 172.337129,194.740307 173.118431,194.070737 L174.996778,192.460238 L174.996778,191.707173 C174.996778,189.075459 172.699589,183.678761 160.498389,183.678761 L160.498389,183.678761 Z" id="icon_cake"></path>
        </g>
    </g>
</svg>