<?xml version="1.0" encoding="UTF-8" standalone="no"?>
<svg width="22px" height="21px" viewBox="0 0 22 21" version="1.1" xmlns="http://www.w3.org/2000/svg" xmlns:xlink="http://www.w3.org/1999/xlink">
    <defs></defs>
    <g id="Page-2" stroke="none" stroke-width="1" fill="none" fill-rule="evenodd">
        <g id="new-scrolled-2" transform="translate(-247.000000, -29.000000)" fill="#F6E9E9">
            <g id="header">
                <path d="M258.668405,49.2196699 C264.191253,49.2196699 268.668405,44.7425174 268.668405,39.2196699 C268.668405,33.6968224 264.191253,29.2196699 258.668405,29.2196699 C253.145558,29.2196699 248.668405,33.6968224 248.668405,39.2196699 C248.668405,44.7425174 253.145558,49.2196699 258.668405,49.2196699 L258.668405,49.2196699 Z M258.668405,46.2196699 C254.802412,46.2196699 251.668405,43.0856632 251.668405,39.2196699 C251.668405,35.3536767 254.802412,32.2196699 258.668405,32.2196699 C262.534399,32.2196699 265.668405,35.3536767 265.668405,39.2196699 C265.668405,43.0856632 262.534399,46.2196699 258.668405,46.2196699 Z M250.883896,44.1067081 L247.331595,47.6590097 L249.452915,49.7803301 L253.005216,46.2280284 L250.883896,44.1067081 Z" id="search_icon"></path>
            </g>
        </g>
    </g>
</svg>